<svg width="14" height="14" viewBox="0 0 14 14" fill="none" xmlns="http://www.w3.org/2000/svg">
<path d="M12.5436 8.53751C11.562 8.81279 10.5247 8.82181 9.5384 8.56365C8.5521 8.30549 7.65228 7.78945 6.93136 7.06853C6.21044 6.34761 5.6944 5.44779 5.43624 4.46149C5.17808 3.47518 5.1871 2.43793 5.46238 1.45626C4.49454 1.72564 3.61418 2.2439 2.90897 2.95941C2.20376 3.67491 1.69832 4.5627 1.443 5.53434C1.18767 6.50598 1.19137 7.52756 1.45373 8.49732C1.71609 9.46708 2.22796 10.3512 2.93833 11.0616C3.64871 11.7719 4.53281 12.2838 5.50257 12.5462C6.47233 12.8085 7.49391 12.8122 8.46555 12.5569C9.43719 12.3016 10.325 11.7961 11.0405 11.0909C11.756 10.3857 12.2742 9.50535 12.5436 8.53751Z" stroke="black" stroke-linecap="round" stroke-linejoin="round"/>
</svg>
